%TF.GenerationSoftware,KiCad,Pcbnew,7.0.7-7.0.7~ubuntu22.04.1*%
%TF.CreationDate,2023-09-11T08:33:09+05:30*%
%TF.ProjectId,panelized,70616e65-6c69-47a6-9564-2e6b69636164,rev?*%
%TF.SameCoordinates,Original*%
%TF.FileFunction,Legend,Bot*%
%TF.FilePolarity,Positive*%
%FSLAX46Y46*%
G04 Gerber Fmt 4.6, Leading zero omitted, Abs format (unit mm)*
G04 Created by KiCad (PCBNEW 7.0.7-7.0.7~ubuntu22.04.1) date 2023-09-11 08:33:09*
%MOMM*%
%LPD*%
G01*
G04 APERTURE LIST*
%ADD10C,0.500000*%
%ADD11C,0.700000*%
%ADD12C,4.400000*%
%ADD13O,1.700000X1.300000*%
%ADD14O,1.300000X1.300000*%
%ADD15C,1.700000*%
%ADD16C,1.440000*%
G04 APERTURE END LIST*
%LPC*%
D10*
%TO.C,REF\u002A\u002A*%
X73751900Y-35175000D03*
%TD*%
%TO.C,REF\u002A\u002A*%
X49634600Y-18687500D03*
%TD*%
%TO.C,REF\u002A\u002A*%
X74751900Y-35175000D03*
%TD*%
%TO.C,REF\u002A\u002A*%
X49634600Y-17687500D03*
%TD*%
D11*
%TO.C,H1*%
X50675164Y-2482000D03*
X51158438Y-1315274D03*
X51158438Y-3648726D03*
X52325164Y-832000D03*
D12*
X52325164Y-2482000D03*
D11*
X52325164Y-4132000D03*
X53491890Y-1315274D03*
X53491890Y-3648726D03*
X53975164Y-2482000D03*
%TD*%
D13*
%TO.C,Q1*%
X65780600Y-23027000D03*
D14*
X68320600Y-25567000D03*
X70860600Y-23027000D03*
%TD*%
D10*
%TO.C,REF\u002A\u002A*%
X48034600Y-15687500D03*
%TD*%
%TO.C,REF\u002A\u002A*%
X49634600Y-52062500D03*
%TD*%
D13*
%TO.C,Q1*%
X65780600Y-58402000D03*
D14*
X68320600Y-60942000D03*
X70860600Y-58402000D03*
%TD*%
D11*
%TO.C,H2*%
X93545164Y-2452000D03*
X94028438Y-1285274D03*
X94028438Y-3618726D03*
X95195164Y-802000D03*
D12*
X95195164Y-2452000D03*
D11*
X95195164Y-4102000D03*
X96361890Y-1285274D03*
X96361890Y-3618726D03*
X96845164Y-2452000D03*
%TD*%
D15*
%TO.C,T1*%
X84295164Y-48667000D03*
X73335164Y-40667000D03*
X78835164Y-48667000D03*
X78835164Y-40667000D03*
%TD*%
D10*
%TO.C,REF\u002A\u002A*%
X25917300Y-35175000D03*
%TD*%
D11*
%TO.C,H3*%
X823838Y-66230274D03*
X1307112Y-65063548D03*
X1307112Y-67397000D03*
X2473838Y-64580274D03*
D12*
X2473838Y-66230274D03*
D11*
X2473838Y-67880274D03*
X3640564Y-65063548D03*
X3640564Y-67397000D03*
X4123838Y-66230274D03*
%TD*%
D16*
%TO.C,RV2*%
X10750564Y-43157000D03*
X13290564Y-40617000D03*
X10750564Y-38077000D03*
%TD*%
D10*
%TO.C,REF\u002A\u002A*%
X48034600Y-17687500D03*
%TD*%
D11*
%TO.C,H1*%
X50675164Y-37857000D03*
X51158438Y-36690274D03*
X51158438Y-39023726D03*
X52325164Y-36207000D03*
D12*
X52325164Y-37857000D03*
D11*
X52325164Y-39507000D03*
X53491890Y-36690274D03*
X53491890Y-39023726D03*
X53975164Y-37857000D03*
%TD*%
%TO.C,H3*%
X50658438Y-66230274D03*
X51141712Y-65063548D03*
X51141712Y-67397000D03*
X52308438Y-64580274D03*
D12*
X52308438Y-66230274D03*
D11*
X52308438Y-67880274D03*
X53475164Y-65063548D03*
X53475164Y-67397000D03*
X53958438Y-66230274D03*
%TD*%
D10*
%TO.C,REF\u002A\u002A*%
X23917300Y-33575000D03*
%TD*%
%TO.C,REF\u002A\u002A*%
X24917300Y-33575000D03*
%TD*%
D16*
%TO.C,RV1*%
X43920564Y-10562000D03*
X41380564Y-8022000D03*
X38840564Y-10562000D03*
%TD*%
D13*
%TO.C,Q1*%
X15946000Y-58402000D03*
D14*
X18486000Y-60942000D03*
X21026000Y-58402000D03*
%TD*%
D11*
%TO.C,H2*%
X93545164Y-37827000D03*
X94028438Y-36660274D03*
X94028438Y-38993726D03*
X95195164Y-36177000D03*
D12*
X95195164Y-37827000D03*
D11*
X95195164Y-39477000D03*
X96361890Y-36660274D03*
X96361890Y-38993726D03*
X96845164Y-37827000D03*
%TD*%
D15*
%TO.C,T1*%
X34460564Y-13292000D03*
X23500564Y-5292000D03*
X29000564Y-13292000D03*
X29000564Y-5292000D03*
%TD*%
D10*
%TO.C,REF\u002A\u002A*%
X49634600Y-53062500D03*
%TD*%
%TO.C,REF\u002A\u002A*%
X48034600Y-14687500D03*
%TD*%
%TO.C,REF\u002A\u002A*%
X48034600Y-18687500D03*
%TD*%
D13*
%TO.C,Q1*%
X15946000Y-23027000D03*
D14*
X18486000Y-25567000D03*
X21026000Y-23027000D03*
%TD*%
D10*
%TO.C,REF\u002A\u002A*%
X71751900Y-33575000D03*
%TD*%
%TO.C,REF\u002A\u002A*%
X49634600Y-54062500D03*
%TD*%
%TO.C,REF\u002A\u002A*%
X48034600Y-50062500D03*
%TD*%
D11*
%TO.C,H4*%
X93450438Y-30611274D03*
X93933712Y-29444548D03*
X93933712Y-31778000D03*
X95100438Y-28961274D03*
D12*
X95100438Y-30611274D03*
D11*
X95100438Y-32261274D03*
X96267164Y-29444548D03*
X96267164Y-31778000D03*
X96750438Y-30611274D03*
%TD*%
D10*
%TO.C,REF\u002A\u002A*%
X74751900Y-33575000D03*
%TD*%
D16*
%TO.C,RV2*%
X60585164Y-7782000D03*
X63125164Y-5242000D03*
X60585164Y-2702000D03*
%TD*%
%TO.C,RV2*%
X60585164Y-43157000D03*
X63125164Y-40617000D03*
X60585164Y-38077000D03*
%TD*%
D11*
%TO.C,H4*%
X43615838Y-65986274D03*
X44099112Y-64819548D03*
X44099112Y-67153000D03*
X45265838Y-64336274D03*
D12*
X45265838Y-65986274D03*
D11*
X45265838Y-67636274D03*
X46432564Y-64819548D03*
X46432564Y-67153000D03*
X46915838Y-65986274D03*
%TD*%
D10*
%TO.C,REF\u002A\u002A*%
X49634600Y-14687500D03*
%TD*%
%TO.C,REF\u002A\u002A*%
X21917300Y-35175000D03*
%TD*%
%TO.C,REF\u002A\u002A*%
X48034600Y-52062500D03*
%TD*%
D15*
%TO.C,T1*%
X34460564Y-48667000D03*
X23500564Y-40667000D03*
X29000564Y-48667000D03*
X29000564Y-40667000D03*
%TD*%
D11*
%TO.C,H4*%
X43615838Y-30611274D03*
X44099112Y-29444548D03*
X44099112Y-31778000D03*
X45265838Y-28961274D03*
D12*
X45265838Y-30611274D03*
D11*
X45265838Y-32261274D03*
X46432564Y-29444548D03*
X46432564Y-31778000D03*
X46915838Y-30611274D03*
%TD*%
D10*
%TO.C,REF\u002A\u002A*%
X22917300Y-33575000D03*
%TD*%
%TO.C,REF\u002A\u002A*%
X23917300Y-35175000D03*
%TD*%
%TO.C,REF\u002A\u002A*%
X48034600Y-51062500D03*
%TD*%
%TO.C,REF\u002A\u002A*%
X48034600Y-16687500D03*
%TD*%
D16*
%TO.C,RV2*%
X10750564Y-7782000D03*
X13290564Y-5242000D03*
X10750564Y-2702000D03*
%TD*%
D10*
%TO.C,REF\u002A\u002A*%
X24917300Y-35175000D03*
%TD*%
%TO.C,REF\u002A\u002A*%
X49634600Y-16687500D03*
%TD*%
%TO.C,REF\u002A\u002A*%
X49634600Y-15687500D03*
%TD*%
%TO.C,REF\u002A\u002A*%
X22917300Y-35175000D03*
%TD*%
D16*
%TO.C,RV1*%
X93755164Y-10562000D03*
X91215164Y-8022000D03*
X88675164Y-10562000D03*
%TD*%
D10*
%TO.C,REF\u002A\u002A*%
X25917300Y-33575000D03*
%TD*%
%TO.C,REF\u002A\u002A*%
X72751900Y-33575000D03*
%TD*%
D11*
%TO.C,H3*%
X823838Y-30855274D03*
X1307112Y-29688548D03*
X1307112Y-32022000D03*
X2473838Y-29205274D03*
D12*
X2473838Y-30855274D03*
D11*
X2473838Y-32505274D03*
X3640564Y-29688548D03*
X3640564Y-32022000D03*
X4123838Y-30855274D03*
%TD*%
D16*
%TO.C,RV1*%
X43920564Y-45937000D03*
X41380564Y-43397000D03*
X38840564Y-45937000D03*
%TD*%
D10*
%TO.C,REF\u002A\u002A*%
X49634600Y-51062500D03*
%TD*%
D11*
%TO.C,H2*%
X43710564Y-37827000D03*
X44193838Y-36660274D03*
X44193838Y-38993726D03*
X45360564Y-36177000D03*
D12*
X45360564Y-37827000D03*
D11*
X45360564Y-39477000D03*
X46527290Y-36660274D03*
X46527290Y-38993726D03*
X47010564Y-37827000D03*
%TD*%
D16*
%TO.C,RV1*%
X93755164Y-45937000D03*
X91215164Y-43397000D03*
X88675164Y-45937000D03*
%TD*%
D10*
%TO.C,REF\u002A\u002A*%
X48034600Y-54062500D03*
%TD*%
%TO.C,REF\u002A\u002A*%
X21917300Y-33575000D03*
%TD*%
D11*
%TO.C,H4*%
X93450438Y-65986274D03*
X93933712Y-64819548D03*
X93933712Y-67153000D03*
X95100438Y-64336274D03*
D12*
X95100438Y-65986274D03*
D11*
X95100438Y-67636274D03*
X96267164Y-64819548D03*
X96267164Y-67153000D03*
X96750438Y-65986274D03*
%TD*%
%TO.C,H2*%
X43710564Y-2452000D03*
X44193838Y-1285274D03*
X44193838Y-3618726D03*
X45360564Y-802000D03*
D12*
X45360564Y-2452000D03*
D11*
X45360564Y-4102000D03*
X46527290Y-1285274D03*
X46527290Y-3618726D03*
X47010564Y-2452000D03*
%TD*%
D10*
%TO.C,REF\u002A\u002A*%
X75751900Y-35175000D03*
%TD*%
D15*
%TO.C,T1*%
X84295164Y-13292000D03*
X73335164Y-5292000D03*
X78835164Y-13292000D03*
X78835164Y-5292000D03*
%TD*%
D11*
%TO.C,H1*%
X840564Y-37857000D03*
X1323838Y-36690274D03*
X1323838Y-39023726D03*
X2490564Y-36207000D03*
D12*
X2490564Y-37857000D03*
D11*
X2490564Y-39507000D03*
X3657290Y-36690274D03*
X3657290Y-39023726D03*
X4140564Y-37857000D03*
%TD*%
D10*
%TO.C,REF\u002A\u002A*%
X49634600Y-50062500D03*
%TD*%
%TO.C,REF\u002A\u002A*%
X71751900Y-35175000D03*
%TD*%
%TO.C,REF\u002A\u002A*%
X72751900Y-35175000D03*
%TD*%
%TO.C,REF\u002A\u002A*%
X48034600Y-53062500D03*
%TD*%
D11*
%TO.C,H1*%
X840564Y-2482000D03*
X1323838Y-1315274D03*
X1323838Y-3648726D03*
X2490564Y-832000D03*
D12*
X2490564Y-2482000D03*
D11*
X2490564Y-4132000D03*
X3657290Y-1315274D03*
X3657290Y-3648726D03*
X4140564Y-2482000D03*
%TD*%
%TO.C,H3*%
X50658438Y-30855274D03*
X51141712Y-29688548D03*
X51141712Y-32022000D03*
X52308438Y-29205274D03*
D12*
X52308438Y-30855274D03*
D11*
X52308438Y-32505274D03*
X53475164Y-29688548D03*
X53475164Y-32022000D03*
X53958438Y-30855274D03*
%TD*%
D10*
%TO.C,REF\u002A\u002A*%
X73751900Y-33575000D03*
%TD*%
%TO.C,REF\u002A\u002A*%
X75751900Y-33575000D03*
%TD*%
%LPD*%
M02*
