%TF.GenerationSoftware,KiCad,Pcbnew,7.0.7-7.0.7~ubuntu22.04.1*%
%TF.CreationDate,2023-09-11T08:33:09+05:30*%
%TF.ProjectId,panelized,70616e65-6c69-47a6-9564-2e6b69636164,rev?*%
%TF.SameCoordinates,Original*%
%TF.FileFunction,Paste,Top*%
%TF.FilePolarity,Positive*%
%FSLAX46Y46*%
G04 Gerber Fmt 4.6, Leading zero omitted, Abs format (unit mm)*
G04 Created by KiCad (PCBNEW 7.0.7-7.0.7~ubuntu22.04.1) date 2023-09-11 08:33:09*
%MOMM*%
%LPD*%
G01*
G04 APERTURE LIST*
G04 Aperture macros list*
%AMRoundRect*
0 Rectangle with rounded corners*
0 $1 Rounding radius*
0 $2 $3 $4 $5 $6 $7 $8 $9 X,Y pos of 4 corners*
0 Add a 4 corners polygon primitive as box body*
4,1,4,$2,$3,$4,$5,$6,$7,$8,$9,$2,$3,0*
0 Add four circle primitives for the rounded corners*
1,1,$1+$1,$2,$3*
1,1,$1+$1,$4,$5*
1,1,$1+$1,$6,$7*
1,1,$1+$1,$8,$9*
0 Add four rect primitives between the rounded corners*
20,1,$1+$1,$2,$3,$4,$5,0*
20,1,$1+$1,$4,$5,$6,$7,0*
20,1,$1+$1,$6,$7,$8,$9,0*
20,1,$1+$1,$8,$9,$2,$3,0*%
G04 Aperture macros list end*
%ADD10RoundRect,0.250000X0.625000X-0.400000X0.625000X0.400000X-0.625000X0.400000X-0.625000X-0.400000X0*%
%ADD11RoundRect,0.250000X0.650000X-0.412500X0.650000X0.412500X-0.650000X0.412500X-0.650000X-0.412500X0*%
%ADD12RoundRect,0.250000X-0.650000X0.412500X-0.650000X-0.412500X0.650000X-0.412500X0.650000X0.412500X0*%
%ADD13RoundRect,0.250000X0.412500X0.650000X-0.412500X0.650000X-0.412500X-0.650000X0.412500X-0.650000X0*%
%ADD14RoundRect,0.250000X-0.412500X-0.650000X0.412500X-0.650000X0.412500X0.650000X-0.412500X0.650000X0*%
%ADD15RoundRect,0.250000X-0.625000X0.400000X-0.625000X-0.400000X0.625000X-0.400000X0.625000X0.400000X0*%
%ADD16RoundRect,0.250000X-0.400000X-0.625000X0.400000X-0.625000X0.400000X0.625000X-0.400000X0.625000X0*%
%ADD17RoundRect,0.250000X0.400000X0.625000X-0.400000X0.625000X-0.400000X-0.625000X0.400000X-0.625000X0*%
%ADD18RoundRect,0.250001X-0.624999X0.462499X-0.624999X-0.462499X0.624999X-0.462499X0.624999X0.462499X0*%
G04 APERTURE END LIST*
D10*
%TO.C,R7*%
X62145164Y-49947000D03*
X62145164Y-46847000D03*
%TD*%
D11*
%TO.C,C35*%
X3690564Y-44752000D03*
X3690564Y-41627000D03*
%TD*%
D12*
%TO.C,C19*%
X3580564Y-22579500D03*
X3580564Y-25704500D03*
%TD*%
D13*
%TO.C,C25*%
X88057664Y-2532000D03*
X84932664Y-2532000D03*
%TD*%
D14*
%TO.C,C18*%
X17508064Y-7892000D03*
X20633064Y-7892000D03*
%TD*%
%TO.C,C18*%
X67342664Y-43267000D03*
X70467664Y-43267000D03*
%TD*%
D15*
%TO.C,R1*%
X39410564Y-17442000D03*
X39410564Y-20542000D03*
%TD*%
D16*
%TO.C,R8*%
X6680564Y-64377000D03*
X9780564Y-64377000D03*
%TD*%
D17*
%TO.C,R5*%
X70445164Y-40657000D03*
X67345164Y-40657000D03*
%TD*%
D15*
%TO.C,R9*%
X56545164Y-59027000D03*
X56545164Y-62127000D03*
%TD*%
D12*
%TO.C,C19*%
X3580564Y-57954500D03*
X3580564Y-61079500D03*
%TD*%
D18*
%TO.C,L1*%
X29050564Y-22307000D03*
X29050564Y-25282000D03*
%TD*%
%TO.C,L1*%
X78885164Y-22307000D03*
X78885164Y-25282000D03*
%TD*%
D17*
%TO.C,R5*%
X20610564Y-5282000D03*
X17510564Y-5282000D03*
%TD*%
D13*
%TO.C,C24*%
X85547664Y-65627000D03*
X82422664Y-65627000D03*
%TD*%
%TO.C,C25*%
X38223064Y-37907000D03*
X35098064Y-37907000D03*
%TD*%
%TO.C,C22*%
X35675564Y-57677000D03*
X32550564Y-57677000D03*
%TD*%
D16*
%TO.C,R8*%
X56515164Y-29002000D03*
X59615164Y-29002000D03*
%TD*%
D15*
%TO.C,R6*%
X9400564Y-46847000D03*
X9400564Y-49947000D03*
%TD*%
D10*
%TO.C,R7*%
X12310564Y-14572000D03*
X12310564Y-11472000D03*
%TD*%
D15*
%TO.C,R1*%
X89245164Y-17442000D03*
X89245164Y-20542000D03*
%TD*%
D13*
%TO.C,C23*%
X85545164Y-62557000D03*
X82420164Y-62557000D03*
%TD*%
%TO.C,C22*%
X85510164Y-57677000D03*
X82385164Y-57677000D03*
%TD*%
D14*
%TO.C,C18*%
X17508064Y-43267000D03*
X20633064Y-43267000D03*
%TD*%
D12*
%TO.C,C19*%
X53415164Y-57954500D03*
X53415164Y-61079500D03*
%TD*%
D13*
%TO.C,C20*%
X32140564Y-19502000D03*
X29015564Y-19502000D03*
%TD*%
D15*
%TO.C,R1*%
X89245164Y-52817000D03*
X89245164Y-55917000D03*
%TD*%
%TO.C,R9*%
X6710564Y-59027000D03*
X6710564Y-62127000D03*
%TD*%
D12*
%TO.C,C19*%
X53415164Y-22579500D03*
X53415164Y-25704500D03*
%TD*%
D14*
%TO.C,C18*%
X67342664Y-7892000D03*
X70467664Y-7892000D03*
%TD*%
D18*
%TO.C,L1*%
X29050564Y-57682000D03*
X29050564Y-60657000D03*
%TD*%
D11*
%TO.C,C35*%
X53525164Y-9377000D03*
X53525164Y-6252000D03*
%TD*%
D15*
%TO.C,R1*%
X39410564Y-52817000D03*
X39410564Y-55917000D03*
%TD*%
D13*
%TO.C,C23*%
X85545164Y-27182000D03*
X82420164Y-27182000D03*
%TD*%
%TO.C,C21*%
X81985164Y-52257000D03*
X78860164Y-52257000D03*
%TD*%
D17*
%TO.C,R5*%
X20610564Y-40657000D03*
X17510564Y-40657000D03*
%TD*%
D11*
%TO.C,C35*%
X3690564Y-9377000D03*
X3690564Y-6252000D03*
%TD*%
D13*
%TO.C,C20*%
X32140564Y-54877000D03*
X29015564Y-54877000D03*
%TD*%
D14*
%TO.C,C1*%
X56208100Y-17167000D03*
X59333100Y-17167000D03*
%TD*%
D15*
%TO.C,R6*%
X59235164Y-11472000D03*
X59235164Y-14572000D03*
%TD*%
D13*
%TO.C,C24*%
X85547664Y-30252000D03*
X82422664Y-30252000D03*
%TD*%
D16*
%TO.C,R8*%
X56515164Y-64377000D03*
X59615164Y-64377000D03*
%TD*%
D15*
%TO.C,R9*%
X6710564Y-23652000D03*
X6710564Y-26752000D03*
%TD*%
D10*
%TO.C,R7*%
X62145164Y-14572000D03*
X62145164Y-11472000D03*
%TD*%
D13*
%TO.C,C23*%
X35710564Y-27182000D03*
X32585564Y-27182000D03*
%TD*%
%TO.C,C24*%
X35713064Y-65627000D03*
X32588064Y-65627000D03*
%TD*%
%TO.C,C23*%
X35710564Y-62557000D03*
X32585564Y-62557000D03*
%TD*%
%TO.C,C20*%
X81975164Y-54877000D03*
X78850164Y-54877000D03*
%TD*%
%TO.C,C25*%
X38223064Y-2532000D03*
X35098064Y-2532000D03*
%TD*%
D16*
%TO.C,R8*%
X6680564Y-29002000D03*
X9780564Y-29002000D03*
%TD*%
D18*
%TO.C,L1*%
X78885164Y-57682000D03*
X78885164Y-60657000D03*
%TD*%
D17*
%TO.C,R5*%
X70445164Y-5282000D03*
X67345164Y-5282000D03*
%TD*%
D15*
%TO.C,R9*%
X56545164Y-23652000D03*
X56545164Y-26752000D03*
%TD*%
D14*
%TO.C,C1*%
X56208100Y-52542000D03*
X59333100Y-52542000D03*
%TD*%
D13*
%TO.C,C20*%
X81975164Y-19502000D03*
X78850164Y-19502000D03*
%TD*%
D15*
%TO.C,R6*%
X59235164Y-46847000D03*
X59235164Y-49947000D03*
%TD*%
D14*
%TO.C,C1*%
X6373500Y-17167000D03*
X9498500Y-17167000D03*
%TD*%
D13*
%TO.C,C24*%
X35713064Y-30252000D03*
X32588064Y-30252000D03*
%TD*%
%TO.C,C21*%
X32150564Y-16882000D03*
X29025564Y-16882000D03*
%TD*%
D15*
%TO.C,R6*%
X9400564Y-11472000D03*
X9400564Y-14572000D03*
%TD*%
D13*
%TO.C,C22*%
X85510164Y-22302000D03*
X82385164Y-22302000D03*
%TD*%
%TO.C,C25*%
X88057664Y-37907000D03*
X84932664Y-37907000D03*
%TD*%
%TO.C,C21*%
X81985164Y-16882000D03*
X78860164Y-16882000D03*
%TD*%
D14*
%TO.C,C1*%
X6373500Y-52542000D03*
X9498500Y-52542000D03*
%TD*%
D13*
%TO.C,C22*%
X35675564Y-22302000D03*
X32550564Y-22302000D03*
%TD*%
%TO.C,C21*%
X32150564Y-52257000D03*
X29025564Y-52257000D03*
%TD*%
D11*
%TO.C,C35*%
X53525164Y-44752000D03*
X53525164Y-41627000D03*
%TD*%
D10*
%TO.C,R7*%
X12310564Y-49947000D03*
X12310564Y-46847000D03*
%TD*%
M02*
