M48
; DRILL file {KiCad 7.0.7-7.0.7~ubuntu22.04.1} date Mon 11 Sep 2023 08:33:09 AM IST
; FORMAT={-:-/ absolute / inch / decimal}
; #@! TF.CreationDate,2023-09-11T08:33:09+05:30
; #@! TF.GenerationSoftware,Kicad,Pcbnew,7.0.7-7.0.7~ubuntu22.04.1
; #@! TF.FileFunction,NonPlated,1,2,NPTH
FMAT,2
INCH
; #@! TA.AperFunction,NonPlated,NPTH,ComponentDrill
T1C0.0197
%
G90
G05
T1
X0.8629Y-1.3219
X0.8629Y-1.3848
X0.9023Y-1.3219
X0.9023Y-1.3848
X0.9416Y-1.3219
X0.9416Y-1.3848
X0.981Y-1.3219
X0.981Y-1.3848
X1.0204Y-1.3219
X1.0204Y-1.3848
X1.8911Y-0.5782
X1.8911Y-0.6176
X1.8911Y-0.657
X1.8911Y-0.6964
X1.8911Y-0.7357
X1.8911Y-1.971
X1.8911Y-2.0103
X1.8911Y-2.0497
X1.8911Y-2.0891
X1.8911Y-2.1284
X1.9541Y-0.5782
X1.9541Y-0.6176
X1.9541Y-0.657
X1.9541Y-0.6964
X1.9541Y-0.7357
X1.9541Y-1.971
X1.9541Y-2.0103
X1.9541Y-2.0497
X1.9541Y-2.0891
X1.9541Y-2.1284
X2.8249Y-1.3219
X2.8249Y-1.3848
X2.8642Y-1.3219
X2.8642Y-1.3848
X2.9036Y-1.3219
X2.9036Y-1.3848
X2.943Y-1.3219
X2.943Y-1.3848
X2.9824Y-1.3219
X2.9824Y-1.3848
T0
M30
