%TF.GenerationSoftware,KiCad,Pcbnew,7.0.7-7.0.7~ubuntu22.04.1*%
%TF.CreationDate,2023-09-11T08:33:09+05:30*%
%TF.ProjectId,panelized,70616e65-6c69-47a6-9564-2e6b69636164,rev?*%
%TF.SameCoordinates,Original*%
%TF.FileFunction,Soldermask,Top*%
%TF.FilePolarity,Negative*%
%FSLAX46Y46*%
G04 Gerber Fmt 4.6, Leading zero omitted, Abs format (unit mm)*
G04 Created by KiCad (PCBNEW 7.0.7-7.0.7~ubuntu22.04.1) date 2023-09-11 08:33:09*
%MOMM*%
%LPD*%
G01*
G04 APERTURE LIST*
G04 Aperture macros list*
%AMRoundRect*
0 Rectangle with rounded corners*
0 $1 Rounding radius*
0 $2 $3 $4 $5 $6 $7 $8 $9 X,Y pos of 4 corners*
0 Add a 4 corners polygon primitive as box body*
4,1,4,$2,$3,$4,$5,$6,$7,$8,$9,$2,$3,0*
0 Add four circle primitives for the rounded corners*
1,1,$1+$1,$2,$3*
1,1,$1+$1,$4,$5*
1,1,$1+$1,$6,$7*
1,1,$1+$1,$8,$9*
0 Add four rect primitives between the rounded corners*
20,1,$1+$1,$2,$3,$4,$5,0*
20,1,$1+$1,$4,$5,$6,$7,0*
20,1,$1+$1,$6,$7,$8,$9,0*
20,1,$1+$1,$8,$9,$2,$3,0*%
G04 Aperture macros list end*
%ADD10C,0.500000*%
%ADD11R,3.000000X3.000000*%
%ADD12RoundRect,0.250000X0.625000X-0.400000X0.625000X0.400000X-0.625000X0.400000X-0.625000X-0.400000X0*%
%ADD13RoundRect,0.250000X0.650000X-0.412500X0.650000X0.412500X-0.650000X0.412500X-0.650000X-0.412500X0*%
%ADD14RoundRect,0.250000X-0.650000X0.412500X-0.650000X-0.412500X0.650000X-0.412500X0.650000X0.412500X0*%
%ADD15C,0.700000*%
%ADD16C,4.400000*%
%ADD17O,1.700000X1.300000*%
%ADD18O,1.300000X1.300000*%
%ADD19RoundRect,0.250000X0.412500X0.650000X-0.412500X0.650000X-0.412500X-0.650000X0.412500X-0.650000X0*%
%ADD20RoundRect,0.250000X-0.412500X-0.650000X0.412500X-0.650000X0.412500X0.650000X-0.412500X0.650000X0*%
%ADD21RoundRect,0.250000X-0.625000X0.400000X-0.625000X-0.400000X0.625000X-0.400000X0.625000X0.400000X0*%
%ADD22RoundRect,0.250000X-0.400000X-0.625000X0.400000X-0.625000X0.400000X0.625000X-0.400000X0.625000X0*%
%ADD23RoundRect,0.250000X0.400000X0.625000X-0.400000X0.625000X-0.400000X-0.625000X0.400000X-0.625000X0*%
%ADD24RoundRect,0.250001X-0.624999X0.462499X-0.624999X-0.462499X0.624999X-0.462499X0.624999X0.462499X0*%
%ADD25C,1.700000*%
%ADD26RoundRect,0.050800X2.032000X-0.635000X2.032000X0.635000X-2.032000X0.635000X-2.032000X-0.635000X0*%
%ADD27RoundRect,0.050800X2.032000X-0.762000X2.032000X0.762000X-2.032000X0.762000X-2.032000X-0.762000X0*%
%ADD28C,1.440000*%
%ADD29RoundRect,0.050800X-2.032000X0.635000X-2.032000X-0.635000X2.032000X-0.635000X2.032000X0.635000X0*%
%ADD30RoundRect,0.050800X-2.032000X0.762000X-2.032000X-0.762000X2.032000X-0.762000X2.032000X0.762000X0*%
G04 APERTURE END LIST*
D10*
%TO.C,REF\u002A\u002A*%
X73751900Y-35175000D03*
%TD*%
%TO.C,REF\u002A\u002A*%
X49634600Y-18687500D03*
%TD*%
%TO.C,REF\u002A\u002A*%
X74751900Y-35175000D03*
%TD*%
D11*
%TO.C,VDC1*%
X78895164Y-30552000D03*
%TD*%
D12*
%TO.C,R7*%
X62145164Y-49947000D03*
X62145164Y-46847000D03*
%TD*%
D10*
%TO.C,REF\u002A\u002A*%
X49634600Y-17687500D03*
%TD*%
D13*
%TO.C,C35*%
X3690564Y-44752000D03*
X3690564Y-41627000D03*
%TD*%
D14*
%TO.C,C19*%
X3580564Y-22579500D03*
X3580564Y-25704500D03*
%TD*%
D15*
%TO.C,H1*%
X50675164Y-2482000D03*
X51158438Y-1315274D03*
X51158438Y-3648726D03*
X52325164Y-832000D03*
D16*
X52325164Y-2482000D03*
D15*
X52325164Y-4132000D03*
X53491890Y-1315274D03*
X53491890Y-3648726D03*
X53975164Y-2482000D03*
%TD*%
D17*
%TO.C,Q1*%
X65780600Y-23027000D03*
D18*
X68320600Y-25567000D03*
X70860600Y-23027000D03*
%TD*%
D19*
%TO.C,C25*%
X88057664Y-2532000D03*
X84932664Y-2532000D03*
%TD*%
D10*
%TO.C,REF\u002A\u002A*%
X48034600Y-15687500D03*
%TD*%
D20*
%TO.C,C18*%
X17508064Y-7892000D03*
X20633064Y-7892000D03*
%TD*%
%TO.C,C18*%
X67342664Y-43267000D03*
X70467664Y-43267000D03*
%TD*%
D10*
%TO.C,REF\u002A\u002A*%
X49634600Y-52062500D03*
%TD*%
D17*
%TO.C,Q1*%
X65780600Y-58402000D03*
D18*
X68320600Y-60942000D03*
X70860600Y-58402000D03*
%TD*%
D21*
%TO.C,R1*%
X39410564Y-17442000D03*
X39410564Y-20542000D03*
%TD*%
D22*
%TO.C,R8*%
X6680564Y-64377000D03*
X9780564Y-64377000D03*
%TD*%
D23*
%TO.C,R5*%
X70445164Y-40657000D03*
X67345164Y-40657000D03*
%TD*%
D21*
%TO.C,R9*%
X56545164Y-59027000D03*
X56545164Y-62127000D03*
%TD*%
D14*
%TO.C,C19*%
X3580564Y-57954500D03*
X3580564Y-61079500D03*
%TD*%
D15*
%TO.C,H2*%
X93545164Y-2452000D03*
X94028438Y-1285274D03*
X94028438Y-3618726D03*
X95195164Y-802000D03*
D16*
X95195164Y-2452000D03*
D15*
X95195164Y-4102000D03*
X96361890Y-1285274D03*
X96361890Y-3618726D03*
X96845164Y-2452000D03*
%TD*%
D24*
%TO.C,L1*%
X29050564Y-22307000D03*
X29050564Y-25282000D03*
%TD*%
%TO.C,L1*%
X78885164Y-22307000D03*
X78885164Y-25282000D03*
%TD*%
D25*
%TO.C,T1*%
X84295164Y-48667000D03*
X73335164Y-40667000D03*
X78835164Y-48667000D03*
X78835164Y-40667000D03*
%TD*%
D10*
%TO.C,REF\u002A\u002A*%
X25917300Y-35175000D03*
%TD*%
D23*
%TO.C,R5*%
X20610564Y-5282000D03*
X17510564Y-5282000D03*
%TD*%
D19*
%TO.C,C24*%
X85547664Y-65627000D03*
X82422664Y-65627000D03*
%TD*%
D15*
%TO.C,H3*%
X823838Y-66230274D03*
X1307112Y-65063548D03*
X1307112Y-67397000D03*
X2473838Y-64580274D03*
D16*
X2473838Y-66230274D03*
D15*
X2473838Y-67880274D03*
X3640564Y-65063548D03*
X3640564Y-67397000D03*
X4123838Y-66230274D03*
%TD*%
D19*
%TO.C,C25*%
X38223064Y-37907000D03*
X35098064Y-37907000D03*
%TD*%
%TO.C,C22*%
X35675564Y-57677000D03*
X32550564Y-57677000D03*
%TD*%
D26*
%TO.C,IN1*%
X52440600Y-17127000D03*
D27*
X52440600Y-14587000D03*
X52440600Y-19667000D03*
%TD*%
D22*
%TO.C,R8*%
X56515164Y-29002000D03*
X59615164Y-29002000D03*
%TD*%
D28*
%TO.C,RV2*%
X10750564Y-43157000D03*
X13290564Y-40617000D03*
X10750564Y-38077000D03*
%TD*%
D21*
%TO.C,R6*%
X9400564Y-46847000D03*
X9400564Y-49947000D03*
%TD*%
D12*
%TO.C,R7*%
X12310564Y-14572000D03*
X12310564Y-11472000D03*
%TD*%
D10*
%TO.C,REF\u002A\u002A*%
X48034600Y-17687500D03*
%TD*%
D11*
%TO.C,GND1*%
X89605164Y-30572000D03*
%TD*%
D21*
%TO.C,R1*%
X89245164Y-17442000D03*
X89245164Y-20542000D03*
%TD*%
D15*
%TO.C,H1*%
X50675164Y-37857000D03*
X51158438Y-36690274D03*
X51158438Y-39023726D03*
X52325164Y-36207000D03*
D16*
X52325164Y-37857000D03*
D15*
X52325164Y-39507000D03*
X53491890Y-36690274D03*
X53491890Y-39023726D03*
X53975164Y-37857000D03*
%TD*%
D11*
%TO.C,VDC1*%
X78895164Y-65927000D03*
%TD*%
D15*
%TO.C,H3*%
X50658438Y-66230274D03*
X51141712Y-65063548D03*
X51141712Y-67397000D03*
X52308438Y-64580274D03*
D16*
X52308438Y-66230274D03*
D15*
X52308438Y-67880274D03*
X53475164Y-65063548D03*
X53475164Y-67397000D03*
X53958438Y-66230274D03*
%TD*%
D19*
%TO.C,C23*%
X85545164Y-62557000D03*
X82420164Y-62557000D03*
%TD*%
%TO.C,C22*%
X85510164Y-57677000D03*
X82385164Y-57677000D03*
%TD*%
D10*
%TO.C,REF\u002A\u002A*%
X23917300Y-33575000D03*
%TD*%
%TO.C,REF\u002A\u002A*%
X24917300Y-33575000D03*
%TD*%
D28*
%TO.C,RV1*%
X43920564Y-10562000D03*
X41380564Y-8022000D03*
X38840564Y-10562000D03*
%TD*%
D17*
%TO.C,Q1*%
X15946000Y-58402000D03*
D18*
X18486000Y-60942000D03*
X21026000Y-58402000D03*
%TD*%
D20*
%TO.C,C18*%
X17508064Y-43267000D03*
X20633064Y-43267000D03*
%TD*%
D14*
%TO.C,C19*%
X53415164Y-57954500D03*
X53415164Y-61079500D03*
%TD*%
D11*
%TO.C,GND1*%
X89605164Y-65947000D03*
%TD*%
D19*
%TO.C,C20*%
X32140564Y-19502000D03*
X29015564Y-19502000D03*
%TD*%
D15*
%TO.C,H2*%
X93545164Y-37827000D03*
X94028438Y-36660274D03*
X94028438Y-38993726D03*
X95195164Y-36177000D03*
D16*
X95195164Y-37827000D03*
D15*
X95195164Y-39477000D03*
X96361890Y-36660274D03*
X96361890Y-38993726D03*
X96845164Y-37827000D03*
%TD*%
D29*
%TO.C,OUT1*%
X94843164Y-55887000D03*
D30*
X94843164Y-58427000D03*
X94843164Y-53347000D03*
%TD*%
D25*
%TO.C,T1*%
X34460564Y-13292000D03*
X23500564Y-5292000D03*
X29000564Y-13292000D03*
X29000564Y-5292000D03*
%TD*%
D10*
%TO.C,REF\u002A\u002A*%
X49634600Y-53062500D03*
%TD*%
D21*
%TO.C,R1*%
X89245164Y-52817000D03*
X89245164Y-55917000D03*
%TD*%
D29*
%TO.C,OUT1*%
X45008564Y-20512000D03*
D30*
X45008564Y-23052000D03*
X45008564Y-17972000D03*
%TD*%
D10*
%TO.C,REF\u002A\u002A*%
X48034600Y-14687500D03*
%TD*%
%TO.C,REF\u002A\u002A*%
X48034600Y-18687500D03*
%TD*%
D17*
%TO.C,Q1*%
X15946000Y-23027000D03*
D18*
X18486000Y-25567000D03*
X21026000Y-23027000D03*
%TD*%
D21*
%TO.C,R9*%
X6710564Y-59027000D03*
X6710564Y-62127000D03*
%TD*%
D10*
%TO.C,REF\u002A\u002A*%
X71751900Y-33575000D03*
%TD*%
%TO.C,REF\u002A\u002A*%
X49634600Y-54062500D03*
%TD*%
D14*
%TO.C,C19*%
X53415164Y-22579500D03*
X53415164Y-25704500D03*
%TD*%
D10*
%TO.C,REF\u002A\u002A*%
X48034600Y-50062500D03*
%TD*%
D15*
%TO.C,H4*%
X93450438Y-30611274D03*
X93933712Y-29444548D03*
X93933712Y-31778000D03*
X95100438Y-28961274D03*
D16*
X95100438Y-30611274D03*
D15*
X95100438Y-32261274D03*
X96267164Y-29444548D03*
X96267164Y-31778000D03*
X96750438Y-30611274D03*
%TD*%
D10*
%TO.C,REF\u002A\u002A*%
X74751900Y-33575000D03*
%TD*%
D20*
%TO.C,C18*%
X67342664Y-7892000D03*
X70467664Y-7892000D03*
%TD*%
D28*
%TO.C,RV2*%
X60585164Y-7782000D03*
X63125164Y-5242000D03*
X60585164Y-2702000D03*
%TD*%
D24*
%TO.C,L1*%
X29050564Y-57682000D03*
X29050564Y-60657000D03*
%TD*%
D29*
%TO.C,OUT1*%
X94843164Y-20512000D03*
D30*
X94843164Y-23052000D03*
X94843164Y-17972000D03*
%TD*%
D13*
%TO.C,C35*%
X53525164Y-9377000D03*
X53525164Y-6252000D03*
%TD*%
D11*
%TO.C,VDC1*%
X29060564Y-65927000D03*
%TD*%
D28*
%TO.C,RV2*%
X60585164Y-43157000D03*
X63125164Y-40617000D03*
X60585164Y-38077000D03*
%TD*%
D15*
%TO.C,H4*%
X43615838Y-65986274D03*
X44099112Y-64819548D03*
X44099112Y-67153000D03*
X45265838Y-64336274D03*
D16*
X45265838Y-65986274D03*
D15*
X45265838Y-67636274D03*
X46432564Y-64819548D03*
X46432564Y-67153000D03*
X46915838Y-65986274D03*
%TD*%
D21*
%TO.C,R1*%
X39410564Y-52817000D03*
X39410564Y-55917000D03*
%TD*%
D10*
%TO.C,REF\u002A\u002A*%
X49634600Y-14687500D03*
%TD*%
D11*
%TO.C,GND1*%
X39770564Y-30572000D03*
%TD*%
D19*
%TO.C,C23*%
X85545164Y-27182000D03*
X82420164Y-27182000D03*
%TD*%
%TO.C,C21*%
X81985164Y-52257000D03*
X78860164Y-52257000D03*
%TD*%
D10*
%TO.C,REF\u002A\u002A*%
X21917300Y-35175000D03*
%TD*%
%TO.C,REF\u002A\u002A*%
X48034600Y-52062500D03*
%TD*%
D23*
%TO.C,R5*%
X20610564Y-40657000D03*
X17510564Y-40657000D03*
%TD*%
D13*
%TO.C,C35*%
X3690564Y-9377000D03*
X3690564Y-6252000D03*
%TD*%
D25*
%TO.C,T1*%
X34460564Y-48667000D03*
X23500564Y-40667000D03*
X29000564Y-48667000D03*
X29000564Y-40667000D03*
%TD*%
D19*
%TO.C,C20*%
X32140564Y-54877000D03*
X29015564Y-54877000D03*
%TD*%
D20*
%TO.C,C1*%
X56208100Y-17167000D03*
X59333100Y-17167000D03*
%TD*%
D21*
%TO.C,R6*%
X59235164Y-11472000D03*
X59235164Y-14572000D03*
%TD*%
D15*
%TO.C,H4*%
X43615838Y-30611274D03*
X44099112Y-29444548D03*
X44099112Y-31778000D03*
X45265838Y-28961274D03*
D16*
X45265838Y-30611274D03*
D15*
X45265838Y-32261274D03*
X46432564Y-29444548D03*
X46432564Y-31778000D03*
X46915838Y-30611274D03*
%TD*%
D10*
%TO.C,REF\u002A\u002A*%
X22917300Y-33575000D03*
%TD*%
D19*
%TO.C,C24*%
X85547664Y-30252000D03*
X82422664Y-30252000D03*
%TD*%
D10*
%TO.C,REF\u002A\u002A*%
X23917300Y-35175000D03*
%TD*%
D22*
%TO.C,R8*%
X56515164Y-64377000D03*
X59615164Y-64377000D03*
%TD*%
D21*
%TO.C,R9*%
X6710564Y-23652000D03*
X6710564Y-26752000D03*
%TD*%
D12*
%TO.C,R7*%
X62145164Y-14572000D03*
X62145164Y-11472000D03*
%TD*%
D10*
%TO.C,REF\u002A\u002A*%
X48034600Y-51062500D03*
%TD*%
D26*
%TO.C,IN1*%
X2606000Y-17127000D03*
D27*
X2606000Y-14587000D03*
X2606000Y-19667000D03*
%TD*%
D10*
%TO.C,REF\u002A\u002A*%
X48034600Y-16687500D03*
%TD*%
D19*
%TO.C,C23*%
X35710564Y-27182000D03*
X32585564Y-27182000D03*
%TD*%
D28*
%TO.C,RV2*%
X10750564Y-7782000D03*
X13290564Y-5242000D03*
X10750564Y-2702000D03*
%TD*%
D10*
%TO.C,REF\u002A\u002A*%
X24917300Y-35175000D03*
%TD*%
%TO.C,REF\u002A\u002A*%
X49634600Y-16687500D03*
%TD*%
D19*
%TO.C,C24*%
X35713064Y-65627000D03*
X32588064Y-65627000D03*
%TD*%
D11*
%TO.C,GND1*%
X39770564Y-65947000D03*
%TD*%
D10*
%TO.C,REF\u002A\u002A*%
X49634600Y-15687500D03*
%TD*%
D19*
%TO.C,C23*%
X35710564Y-62557000D03*
X32585564Y-62557000D03*
%TD*%
D10*
%TO.C,REF\u002A\u002A*%
X22917300Y-35175000D03*
%TD*%
D28*
%TO.C,RV1*%
X93755164Y-10562000D03*
X91215164Y-8022000D03*
X88675164Y-10562000D03*
%TD*%
D26*
%TO.C,IN1*%
X2606000Y-52502000D03*
D27*
X2606000Y-49962000D03*
X2606000Y-55042000D03*
%TD*%
D19*
%TO.C,C20*%
X81975164Y-54877000D03*
X78850164Y-54877000D03*
%TD*%
D11*
%TO.C,VDC1*%
X29060564Y-30552000D03*
%TD*%
D10*
%TO.C,REF\u002A\u002A*%
X25917300Y-33575000D03*
%TD*%
%TO.C,REF\u002A\u002A*%
X72751900Y-33575000D03*
%TD*%
D19*
%TO.C,C25*%
X38223064Y-2532000D03*
X35098064Y-2532000D03*
%TD*%
D22*
%TO.C,R8*%
X6680564Y-29002000D03*
X9780564Y-29002000D03*
%TD*%
D15*
%TO.C,H3*%
X823838Y-30855274D03*
X1307112Y-29688548D03*
X1307112Y-32022000D03*
X2473838Y-29205274D03*
D16*
X2473838Y-30855274D03*
D15*
X2473838Y-32505274D03*
X3640564Y-29688548D03*
X3640564Y-32022000D03*
X4123838Y-30855274D03*
%TD*%
D24*
%TO.C,L1*%
X78885164Y-57682000D03*
X78885164Y-60657000D03*
%TD*%
D28*
%TO.C,RV1*%
X43920564Y-45937000D03*
X41380564Y-43397000D03*
X38840564Y-45937000D03*
%TD*%
D10*
%TO.C,REF\u002A\u002A*%
X49634600Y-51062500D03*
%TD*%
D15*
%TO.C,H2*%
X43710564Y-37827000D03*
X44193838Y-36660274D03*
X44193838Y-38993726D03*
X45360564Y-36177000D03*
D16*
X45360564Y-37827000D03*
D15*
X45360564Y-39477000D03*
X46527290Y-36660274D03*
X46527290Y-38993726D03*
X47010564Y-37827000D03*
%TD*%
D23*
%TO.C,R5*%
X70445164Y-5282000D03*
X67345164Y-5282000D03*
%TD*%
D28*
%TO.C,RV1*%
X93755164Y-45937000D03*
X91215164Y-43397000D03*
X88675164Y-45937000D03*
%TD*%
D21*
%TO.C,R9*%
X56545164Y-23652000D03*
X56545164Y-26752000D03*
%TD*%
D10*
%TO.C,REF\u002A\u002A*%
X48034600Y-54062500D03*
%TD*%
%TO.C,REF\u002A\u002A*%
X21917300Y-33575000D03*
%TD*%
D15*
%TO.C,H4*%
X93450438Y-65986274D03*
X93933712Y-64819548D03*
X93933712Y-67153000D03*
X95100438Y-64336274D03*
D16*
X95100438Y-65986274D03*
D15*
X95100438Y-67636274D03*
X96267164Y-64819548D03*
X96267164Y-67153000D03*
X96750438Y-65986274D03*
%TD*%
%TO.C,H2*%
X43710564Y-2452000D03*
X44193838Y-1285274D03*
X44193838Y-3618726D03*
X45360564Y-802000D03*
D16*
X45360564Y-2452000D03*
D15*
X45360564Y-4102000D03*
X46527290Y-1285274D03*
X46527290Y-3618726D03*
X47010564Y-2452000D03*
%TD*%
D20*
%TO.C,C1*%
X56208100Y-52542000D03*
X59333100Y-52542000D03*
%TD*%
D10*
%TO.C,REF\u002A\u002A*%
X75751900Y-35175000D03*
%TD*%
D19*
%TO.C,C20*%
X81975164Y-19502000D03*
X78850164Y-19502000D03*
%TD*%
D21*
%TO.C,R6*%
X59235164Y-46847000D03*
X59235164Y-49947000D03*
%TD*%
D20*
%TO.C,C1*%
X6373500Y-17167000D03*
X9498500Y-17167000D03*
%TD*%
D29*
%TO.C,OUT1*%
X45008564Y-55887000D03*
D30*
X45008564Y-58427000D03*
X45008564Y-53347000D03*
%TD*%
D19*
%TO.C,C24*%
X35713064Y-30252000D03*
X32588064Y-30252000D03*
%TD*%
%TO.C,C21*%
X32150564Y-16882000D03*
X29025564Y-16882000D03*
%TD*%
D25*
%TO.C,T1*%
X84295164Y-13292000D03*
X73335164Y-5292000D03*
X78835164Y-13292000D03*
X78835164Y-5292000D03*
%TD*%
D21*
%TO.C,R6*%
X9400564Y-11472000D03*
X9400564Y-14572000D03*
%TD*%
D19*
%TO.C,C22*%
X85510164Y-22302000D03*
X82385164Y-22302000D03*
%TD*%
D15*
%TO.C,H1*%
X840564Y-37857000D03*
X1323838Y-36690274D03*
X1323838Y-39023726D03*
X2490564Y-36207000D03*
D16*
X2490564Y-37857000D03*
D15*
X2490564Y-39507000D03*
X3657290Y-36690274D03*
X3657290Y-39023726D03*
X4140564Y-37857000D03*
%TD*%
D19*
%TO.C,C25*%
X88057664Y-37907000D03*
X84932664Y-37907000D03*
%TD*%
%TO.C,C21*%
X81985164Y-16882000D03*
X78860164Y-16882000D03*
%TD*%
D10*
%TO.C,REF\u002A\u002A*%
X49634600Y-50062500D03*
%TD*%
%TO.C,REF\u002A\u002A*%
X71751900Y-35175000D03*
%TD*%
%TO.C,REF\u002A\u002A*%
X72751900Y-35175000D03*
%TD*%
D20*
%TO.C,C1*%
X6373500Y-52542000D03*
X9498500Y-52542000D03*
%TD*%
D19*
%TO.C,C22*%
X35675564Y-22302000D03*
X32550564Y-22302000D03*
%TD*%
D26*
%TO.C,IN1*%
X52440600Y-52502000D03*
D27*
X52440600Y-49962000D03*
X52440600Y-55042000D03*
%TD*%
D19*
%TO.C,C21*%
X32150564Y-52257000D03*
X29025564Y-52257000D03*
%TD*%
D10*
%TO.C,REF\u002A\u002A*%
X48034600Y-53062500D03*
%TD*%
D13*
%TO.C,C35*%
X53525164Y-44752000D03*
X53525164Y-41627000D03*
%TD*%
D15*
%TO.C,H1*%
X840564Y-2482000D03*
X1323838Y-1315274D03*
X1323838Y-3648726D03*
X2490564Y-832000D03*
D16*
X2490564Y-2482000D03*
D15*
X2490564Y-4132000D03*
X3657290Y-1315274D03*
X3657290Y-3648726D03*
X4140564Y-2482000D03*
%TD*%
%TO.C,H3*%
X50658438Y-30855274D03*
X51141712Y-29688548D03*
X51141712Y-32022000D03*
X52308438Y-29205274D03*
D16*
X52308438Y-30855274D03*
D15*
X52308438Y-32505274D03*
X53475164Y-29688548D03*
X53475164Y-32022000D03*
X53958438Y-30855274D03*
%TD*%
D10*
%TO.C,REF\u002A\u002A*%
X73751900Y-33575000D03*
%TD*%
D12*
%TO.C,R7*%
X12310564Y-49947000D03*
X12310564Y-46847000D03*
%TD*%
D10*
%TO.C,REF\u002A\u002A*%
X75751900Y-33575000D03*
%TD*%
M02*
