M48
; DRILL file {KiCad 7.0.7-7.0.7~ubuntu22.04.1} date Mon 11 Sep 2023 08:33:09 AM IST
; FORMAT={-:-/ absolute / inch / decimal}
; #@! TF.CreationDate,2023-09-11T08:33:09+05:30
; #@! TF.GenerationSoftware,Kicad,Pcbnew,7.0.7-7.0.7~ubuntu22.04.1
; #@! TF.FileFunction,Plated,1,2,PTH
FMAT,2
INCH
; #@! TA.AperFunction,Plated,PTH,ViaDrill
T1C0.0157
; #@! TA.AperFunction,Plated,PTH,ComponentDrill
T2C0.0157
; #@! TA.AperFunction,Plated,PTH,ComponentDrill
T3C0.0315
; #@! TA.AperFunction,Plated,PTH,ComponentDrill
T4C0.0394
; #@! TA.AperFunction,Plated,PTH,ComponentDrill
T5C0.0866
%
G90
G05
T1
X0.0561Y-0.3975
X0.0561Y-0.4975
X0.0561Y-1.7902
X0.0561Y-1.8902
X0.1561Y-0.4975
X0.1561Y-1.8902
X0.2561Y-0.0975
X0.2561Y-0.4975
X0.2561Y-0.5975
X0.2561Y-0.7975
X0.2561Y-1.4902
X0.2561Y-1.8902
X0.2561Y-1.9902
X0.2561Y-2.1902
X0.3691Y-0.6562
X0.3691Y-2.0489
X0.3695Y-0.6959
X0.3695Y-2.0887
X0.5561Y-0.3975
X0.5561Y-1.7902
X0.6561Y-0.3975
X0.6561Y-1.7902
X0.7561Y-0.0975
X0.7561Y-1.4902
X0.8561Y-0.0975
X0.8561Y-1.4902
X0.9561Y-0.0975
X0.9561Y-0.2975
X0.9561Y-0.4975
X0.9561Y-1.1975
X0.9561Y-1.4902
X0.9561Y-1.6902
X0.9561Y-1.8902
X0.9561Y-2.5902
X1.0561Y-0.0975
X1.0561Y-0.2975
X1.0561Y-0.4975
X1.0561Y-0.6975
X1.0561Y-1.0975
X1.0561Y-1.4902
X1.0561Y-1.6902
X1.0561Y-1.8902
X1.0561Y-2.0902
X1.0561Y-2.4902
X1.1561Y-0.0975
X1.1561Y-0.2975
X1.1561Y-1.4902
X1.1561Y-1.6902
X1.2561Y-0.0975
X1.2561Y-0.2975
X1.2561Y-0.4975
X1.2561Y-0.9975
X1.2561Y-1.4902
X1.2561Y-1.6902
X1.2561Y-1.8902
X1.2561Y-2.3902
X1.3561Y-0.2975
X1.3561Y-1.6902
X1.4561Y-0.1975
X1.4561Y-0.9975
X1.4561Y-1.5902
X1.4561Y-2.3902
X1.5561Y-0.1975
X1.5561Y-0.9975
X1.5561Y-1.0975
X1.5561Y-1.5902
X1.5561Y-2.3902
X1.5561Y-2.4902
X1.6561Y-0.8975
X1.6561Y-0.9975
X1.6561Y-1.0975
X1.6561Y-2.2902
X1.6561Y-2.3902
X1.6561Y-2.4902
X1.7561Y-0.9975
X1.7561Y-2.3902
X2.0181Y-0.3975
X2.0181Y-0.4975
X2.0181Y-1.7902
X2.0181Y-1.8902
X2.1181Y-0.4975
X2.1181Y-1.8902
X2.2181Y-0.0975
X2.2181Y-0.4975
X2.2181Y-0.5975
X2.2181Y-0.7975
X2.2181Y-1.4902
X2.2181Y-1.8902
X2.2181Y-1.9902
X2.2181Y-2.1902
X2.3311Y-0.6562
X2.3311Y-2.0489
X2.3315Y-0.6959
X2.3315Y-2.0887
X2.5181Y-0.3975
X2.5181Y-1.7902
X2.6181Y-0.3975
X2.6181Y-1.7902
X2.7181Y-0.0975
X2.7181Y-1.4902
X2.8181Y-0.0975
X2.8181Y-1.4902
X2.9181Y-0.0975
X2.9181Y-0.2975
X2.9181Y-0.4975
X2.9181Y-1.1975
X2.9181Y-1.4902
X2.9181Y-1.6902
X2.9181Y-1.8902
X2.9181Y-2.5902
X3.0181Y-0.0975
X3.0181Y-0.2975
X3.0181Y-0.4975
X3.0181Y-0.6975
X3.0181Y-1.0975
X3.0181Y-1.4902
X3.0181Y-1.6902
X3.0181Y-1.8902
X3.0181Y-2.0902
X3.0181Y-2.4902
X3.1181Y-0.0975
X3.1181Y-0.2975
X3.1181Y-1.4902
X3.1181Y-1.6902
X3.2181Y-0.0975
X3.2181Y-0.2975
X3.2181Y-0.4975
X3.2181Y-0.9975
X3.2181Y-1.4902
X3.2181Y-1.6902
X3.2181Y-1.8902
X3.2181Y-2.3902
X3.3181Y-0.2975
X3.3181Y-1.6902
X3.4181Y-0.1975
X3.4181Y-0.9975
X3.4181Y-1.5902
X3.4181Y-2.3902
X3.5181Y-0.1975
X3.5181Y-0.9975
X3.5181Y-1.0975
X3.5181Y-1.5902
X3.5181Y-2.3902
X3.5181Y-2.4902
X3.6181Y-0.8975
X3.6181Y-0.9975
X3.6181Y-1.0975
X3.6181Y-2.2902
X3.6181Y-2.3902
X3.6181Y-2.4902
X3.7181Y-0.9975
X3.7181Y-2.3902
T2
X0.0324Y-1.2148
X0.0324Y-2.6075
X0.0331Y-0.0977
X0.0331Y-1.4904
X0.0515Y-1.1688
X0.0515Y-1.2607
X0.0515Y-2.5616
X0.0515Y-2.6534
X0.0521Y-0.0518
X0.0521Y-0.1437
X0.0521Y-1.4445
X0.0521Y-1.5364
X0.0974Y-1.1498
X0.0974Y-1.2797
X0.0974Y-2.5425
X0.0974Y-2.6725
X0.0981Y-0.0328
X0.0981Y-0.1627
X0.0981Y-1.4255
X0.0981Y-1.5554
X0.1433Y-1.1688
X0.1433Y-1.2607
X0.1433Y-2.5616
X0.1433Y-2.6534
X0.144Y-0.0518
X0.144Y-0.1437
X0.144Y-1.4445
X0.144Y-1.5364
X0.1624Y-1.2148
X0.1624Y-2.6075
X0.163Y-0.0977
X0.163Y-1.4904
X1.7172Y-1.2052
X1.7172Y-2.5979
X1.7209Y-0.0965
X1.7209Y-1.4893
X1.7362Y-1.1592
X1.7362Y-1.2511
X1.7362Y-2.552
X1.7362Y-2.6438
X1.7399Y-0.0506
X1.7399Y-0.1425
X1.7399Y-1.4433
X1.7399Y-1.5352
X1.7821Y-1.1402
X1.7821Y-1.2701
X1.7821Y-2.5329
X1.7821Y-2.6628
X1.7858Y-0.0316
X1.7858Y-0.1615
X1.7858Y-1.4243
X1.7858Y-1.5542
X1.8281Y-1.1592
X1.8281Y-1.2511
X1.8281Y-2.552
X1.8281Y-2.6438
X1.8318Y-0.0506
X1.8318Y-0.1425
X1.8318Y-1.4433
X1.8318Y-1.5352
X1.8471Y-1.2052
X1.8471Y-2.5979
X1.8508Y-0.0965
X1.8508Y-1.4893
X1.9944Y-1.2148
X1.9944Y-2.6075
X1.9951Y-0.0977
X1.9951Y-1.4904
X2.0135Y-1.1688
X2.0135Y-1.2607
X2.0135Y-2.5616
X2.0135Y-2.6534
X2.0141Y-0.0518
X2.0141Y-0.1437
X2.0141Y-1.4445
X2.0141Y-1.5364
X2.0594Y-1.1498
X2.0594Y-1.2797
X2.0594Y-2.5425
X2.0594Y-2.6725
X2.06Y-0.0328
X2.06Y-0.1627
X2.06Y-1.4255
X2.06Y-1.5554
X2.1053Y-1.1688
X2.1053Y-1.2607
X2.1053Y-2.5616
X2.1053Y-2.6534
X2.106Y-0.0518
X2.106Y-0.1437
X2.106Y-1.4445
X2.106Y-1.5364
X2.1243Y-1.2148
X2.1243Y-2.6075
X2.125Y-0.0977
X2.125Y-1.4904
X3.6792Y-1.2052
X3.6792Y-2.5979
X3.6829Y-0.0965
X3.6829Y-1.4893
X3.6982Y-1.1592
X3.6982Y-1.2511
X3.6982Y-2.552
X3.6982Y-2.6438
X3.7019Y-0.0506
X3.7019Y-0.1425
X3.7019Y-1.4433
X3.7019Y-1.5352
X3.7441Y-1.1402
X3.7441Y-1.2701
X3.7441Y-2.5329
X3.7441Y-2.6628
X3.7478Y-0.0316
X3.7478Y-0.1615
X3.7478Y-1.4243
X3.7478Y-1.5542
X3.79Y-1.1592
X3.79Y-1.2511
X3.79Y-2.552
X3.79Y-2.6438
X3.7938Y-0.0506
X3.7938Y-0.1425
X3.7938Y-1.4433
X3.7938Y-1.5352
X3.8091Y-1.2052
X3.8091Y-2.5979
X3.8128Y-0.0965
X3.8128Y-1.4893
T3
X0.4233Y-0.1064
X0.4233Y-0.3064
X0.4233Y-1.4991
X0.4233Y-1.6991
X0.5233Y-0.2064
X0.5233Y-1.5991
X0.6278Y-0.9066
X0.6278Y-2.2993
X0.7278Y-1.0066
X0.7278Y-2.3993
X0.8278Y-0.9066
X0.8278Y-2.2993
X1.5292Y-0.4158
X1.5292Y-1.8085
X1.6292Y-0.3158
X1.6292Y-1.7085
X1.7292Y-0.4158
X1.7292Y-1.8085
X2.3852Y-0.1064
X2.3852Y-0.3064
X2.3852Y-1.4991
X2.3852Y-1.6991
X2.4852Y-0.2064
X2.4852Y-1.5991
X2.5898Y-0.9066
X2.5898Y-2.2993
X2.6898Y-1.0066
X2.6898Y-2.3993
X2.7898Y-0.9066
X2.7898Y-2.2993
X3.4911Y-0.4158
X3.4911Y-1.8085
X3.5911Y-0.3158
X3.5911Y-1.7085
X3.6911Y-0.4158
X3.6911Y-1.8085
T4
X0.9252Y-0.2083
X0.9252Y-1.6011
X1.1418Y-0.2083
X1.1418Y-0.5233
X1.1418Y-1.6011
X1.1418Y-1.916
X1.3567Y-0.5233
X1.3567Y-1.916
X2.8872Y-0.2083
X2.8872Y-1.6011
X3.1037Y-0.2083
X3.1037Y-0.5233
X3.1037Y-1.6011
X3.1037Y-1.916
X3.3187Y-0.5233
X3.3187Y-1.916
T5
X0.0974Y-1.2148
X0.0974Y-2.6075
X0.0981Y-0.0977
X0.0981Y-1.4904
X1.7821Y-1.2052
X1.7821Y-2.5979
X1.7858Y-0.0965
X1.7858Y-1.4893
X2.0594Y-1.2148
X2.0594Y-2.6075
X2.06Y-0.0977
X2.06Y-1.4904
X3.7441Y-1.2052
X3.7441Y-2.5979
X3.7478Y-0.0965
X3.7478Y-1.4893
T0
M30
